<svg width="406" height="51" viewBox="0 0 406 51" fill="none" xmlns="http://www.w3.org/2000/svg">
<path fill-rule="evenodd" clip-rule="evenodd" d="M215.758 27.7169C212.138 28.519 208.549 29.321 205.004 30.0861C208.28 29.3704 207.965 29.4444 204.047 30.2958C204.361 30.2218 204.69 30.1601 205.004 30.0861C139.915 46.7563 36.8071 47.8791 0 35.7251V42.598C75.4239 62.6738 163.68 42.7831 236.188 24.5581C286.007 12.8236 341.688 0.71883 406 1.87871V0.0278364C333.059 -0.76187 270.647 15.4148 215.758 27.7169Z" fill="url(#paint0_linear_804_29)"/>
<path fill-rule="evenodd" clip-rule="evenodd" d="M295.773 14.6374C277.033 17.6111 257.411 21.1525 236.577 24.5087C236.487 24.5334 236.382 24.5334 236.292 24.5581H236.248H236.203C229.547 25.6316 222.742 26.6928 215.817 27.6922H215.773C156.112 36.4777 87.4039 42.1538 0.0748291 29.3334V31.0732C0.702988 31.1719 0.254293 31.0978 0.882452 31.1966C23.0924 34.3801 44.1955 36.3173 64.3714 37.2921C87.3291 38.415 109.016 38.2916 129.58 37.3168C129.73 37.3045 129.894 37.3045 130.044 37.2921C155.948 36.0705 180.087 33.5163 202.806 30.4439C203.194 30.3945 203.628 30.3328 204.122 30.2711C210.972 29.358 217.672 28.3832 224.253 27.3838H224.298C224.387 27.3714 224.462 27.3468 224.552 27.3344C261.538 21.7201 294.756 15.4148 325.626 12.3793H325.671C327.854 12.1696 330.053 11.9598 332.221 11.7747C334.435 11.5896 336.618 11.4292 338.802 11.2811C365.723 9.46728 387.754 8.76395 406 8.71459V3.8036C367.652 3.96401 330.397 9.13412 295.773 14.6127V14.6374Z" fill="url(#paint1_linear_804_29)"/>
<defs>
<linearGradient id="paint0_linear_804_29" x1="203" y1="51" x2="203" y2="0" gradientUnits="userSpaceOnUse">
<stop stop-color="#00B5B5"/>
<stop offset="1" stop-color="#30578E"/>
</linearGradient>
<linearGradient id="paint1_linear_804_29" x1="203.037" y1="38.0915" x2="203.037" y2="3.8036" gradientUnits="userSpaceOnUse">
<stop stop-color="#00B5B5"/>
<stop offset="1" stop-color="#30578E"/>
</linearGradient>
</defs>
</svg>
