<svg width="137" height="73" viewBox="0 0 137 73" fill="none" xmlns="http://www.w3.org/2000/svg">
<mask id="mask0_806_174" style="mask-type:luminance" maskUnits="userSpaceOnUse" x="35" y="48" width="67" height="25">
<path d="M96.2956 48.6819C92.0274 60.0271 81.0799 68.0981 68.2414 68.0981C55.4028 68.0981 44.4578 60.0271 40.1896 48.6819H35C39.4738 62.7839 52.663 72.9999 68.2414 72.9999C83.8198 72.9999 97.0114 62.7839 101.486 48.6819H96.2968H96.2956Z" fill="white"/>
</mask>
<g mask="url(#mask0_806_174)">
<path d="M101.485 48.6819H35V72.9999H101.485V48.6819Z" fill="url(#paint0_linear_806_174)"/>
</g>
<mask id="mask1_806_174" style="mask-type:luminance" maskUnits="userSpaceOnUse" x="35" y="0" width="67" height="25">
<path d="M96.2956 24.318C92.0274 12.9727 81.0799 4.90182 68.2414 4.90182C55.4028 4.90182 44.4578 12.9727 40.1896 24.318H35C39.4738 10.2159 52.663 5.87733e-06 68.2414 5.87733e-06C83.8198 5.87733e-06 97.0114 10.2159 101.486 24.318H96.2968H96.2956Z" fill="white"/>
</mask>
<g mask="url(#mask1_806_174)">
<path d="M101.485 24.318H35V5.72205e-06H101.485V24.318Z" fill="url(#paint1_linear_806_174)"/>
</g>
<path d="M60.5529 50C59.3249 50 58.6634 50.6334 58.6634 51.6703V53.325C58.6634 54.3619 59.3249 54.9984 60.5529 54.9984C61.7809 54.9984 62.4279 54.3619 62.4279 53.325V51.6703C62.4279 50.6334 61.7696 50 60.5529 50ZM62.1052 53.325C62.1052 54.1914 61.5582 54.7154 60.5529 54.7154C59.5476 54.7154 58.9861 54.1914 58.9861 53.325V51.6703C58.9861 50.8039 59.5331 50.2909 60.5529 50.2909C61.5727 50.2909 62.1052 50.8039 62.1052 51.6703V53.325ZM57.4402 50.0938C57.3692 50.0938 57.3499 50.1126 57.3499 50.172V53.2327C57.3499 53.6988 57.3983 54.1492 57.3983 54.4526H57.3854C57.2176 54.2243 56.9997 53.8427 56.7432 53.4861L54.326 50.1408C54.313 50.1173 54.2856 50.0938 54.2307 50.0938H54.0904C54.021 50.0938 54 50.1126 54 50.183V54.817C54 54.8874 54.021 54.9062 54.0904 54.9062H54.2307C54.2937 54.9062 54.3147 54.8858 54.3147 54.817V51.6562C54.3147 51.2324 54.2727 50.8023 54.2727 50.538H54.2872C54.4373 50.7398 54.6245 51.101 54.8536 51.4185L57.337 54.853C57.3644 54.8984 57.3854 54.9077 57.4338 54.9077H57.5822C57.6419 54.9077 57.6661 54.8874 57.6661 54.8186V50.1845C57.6661 50.1142 57.6419 50.0954 57.5822 50.0954H57.4402V50.0938ZM66.7557 50.0938C66.6556 50.0938 66.6217 50.1095 66.6024 50.1673L65.0565 54.0679C64.9936 54.2415 64.9436 54.4292 64.9113 54.5183H64.8871C64.8548 54.4292 64.7967 54.2352 64.737 54.0679L63.1815 50.1673C63.1589 50.1095 63.1315 50.0938 63.0266 50.0938H62.8943C62.8313 50.0938 62.8184 50.1251 62.8378 50.172L64.7048 54.8327C64.7273 54.8874 64.7532 54.9062 64.8242 54.9062H64.9581C65.021 54.9062 65.0549 54.8858 65.0759 54.8248L66.9429 50.172C66.9655 50.1251 66.959 50.0938 66.8896 50.0938H66.7541H66.7557ZM76.7375 50.0594H76.6004C76.5407 50.0594 76.5116 50.0751 76.481 50.1408L74.5414 54.8248C74.5236 54.8718 74.5366 54.9062 74.6076 54.9062H74.7286C74.8302 54.9062 74.8641 54.8952 74.8867 54.8327L75.5031 53.3328H77.8267L78.448 54.8327C78.4593 54.8952 78.4948 54.9062 78.5997 54.9062H78.7287C78.8046 54.9062 78.8159 54.8718 78.7965 54.8248L76.8586 50.1408C76.836 50.0751 76.8053 50.0594 76.7375 50.0594ZM75.5999 53.0685L76.5939 50.66C76.6456 50.5286 76.6488 50.4004 76.6488 50.3722H76.6698C76.6778 50.3988 76.6924 50.5271 76.7375 50.66L77.7331 53.0685H75.5999ZM67.698 50.0938C67.6286 50.0938 67.6077 50.1126 67.6077 50.183V54.817C67.6077 54.8874 67.6286 54.9062 67.698 54.9062H67.8465C67.911 54.9062 67.9304 54.8858 67.9304 54.817V50.183C67.9304 50.1126 67.911 50.0938 67.8465 50.0938H67.698ZM80.9717 50.0938H79.5436C79.4759 50.0938 79.4533 50.1126 79.4533 50.183V54.817C79.4533 54.8874 79.4759 54.9062 79.5436 54.9062H80.9717C82.2723 54.9062 83 54.2227 83 53.1154V51.8799C83 50.7757 82.2723 50.0923 80.9717 50.0923M82.6805 53.1154C82.6805 54.0554 82.0705 54.6106 80.9781 54.6106H79.7744V50.3847H80.9781C82.0786 50.3847 82.6805 50.9353 82.6805 51.8799V53.1154ZM72.4969 52.3381C71.7079 52.2521 70.9301 52.1239 70.9301 51.3247C70.9301 50.6772 71.4529 50.2925 72.3549 50.2925C73.1392 50.2925 73.5797 50.5802 73.8943 51.1824C73.9314 51.248 73.9492 51.248 74.0041 51.2246L74.1444 51.1667C74.2041 51.1401 74.2219 51.112 74.1864 51.0463C73.8266 50.3316 73.2925 50.0016 72.3533 50.0016C71.2496 50.0016 70.5993 50.5224 70.5993 51.3497C70.5993 52.4023 71.5514 52.5415 72.4227 52.6431C73.186 52.7323 73.9153 52.8323 73.9153 53.6284C73.9153 54.351 73.3957 54.7013 72.3921 54.7013C71.6078 54.7013 71.1092 54.3869 70.8123 53.6988C70.7752 53.6284 70.7542 53.6222 70.6897 53.6487L70.5606 53.691C70.488 53.7207 70.4799 53.7488 70.5106 53.8114C70.8446 54.6231 71.4142 55 72.3921 55C73.6055 55 74.238 54.4995 74.238 53.6221C74.238 52.5743 73.3505 52.4335 72.4953 52.3397" fill="#434243"/>
<path d="M83.1171 40.2963C83.1171 40.2963 83.1124 40.3011 83.1108 40.3043H83.1124L87.0607 33.1677C87.518 32.3604 87.9252 31.5643 88.3339 30.7267C88.4639 30.457 88.1992 31.0122 88.3339 30.7267C88.2744 31.7127 88.2165 32.7034 88.2165 33.5985V43.9722C88.2165 44.044 88.2212 44.1079 88.2353 44.1669C88.2478 44.218 88.2682 44.2658 88.2963 44.3089C88.3433 44.3839 88.4154 44.4317 88.4859 44.4509C88.5579 44.478 88.6237 44.4812 88.6926 44.4812H89.1374C89.1984 44.4812 89.258 44.4812 89.3206 44.4573C89.366 44.4461 89.413 44.4222 89.4584 44.3903C89.5226 44.3344 89.5696 44.2642 89.5915 44.1908C89.6119 44.1158 89.6166 44.0488 89.6166 43.9691V28.5153C89.6166 28.4435 89.6119 28.3813 89.5947 28.3175C89.5853 28.2696 89.5665 28.2234 89.5336 28.1755C89.4913 28.1037 89.4146 28.0526 89.3457 28.0335C89.2736 28.0064 89.2078 28.0016 89.1405 28.0016H88.7176C88.6503 28.0016 88.5892 28.0064 88.5297 28.0255C88.4357 28.0399 88.3449 28.0957 88.2823 28.1627C88.2196 28.2313 88.1773 28.3063 88.135 28.3813L82.4171 38.7184L76.6552 28.3526H76.6521C76.6192 28.3047 76.591 28.2569 76.5581 28.2138C76.5033 28.1516 76.4328 28.0877 76.3388 28.0431C76.2464 28.016 76.154 28 76.0491 28H75.6952C75.6309 28 75.5699 28.0048 75.5025 28.0239C75.4555 28.0319 75.4086 28.059 75.3616 28.0862C75.2927 28.1388 75.2441 28.2218 75.2253 28.292C75.2003 28.3638 75.1956 28.4388 75.1956 28.5137V43.9675C75.1956 44.0393 75.1971 44.1031 75.2143 44.1701C75.2269 44.2132 75.2457 44.2642 75.2801 44.3073C75.3318 44.3823 75.4101 44.4301 75.479 44.4493C75.5511 44.4732 75.6184 44.4764 75.6952 44.4764H76.0961C76.1619 44.4764 76.2245 44.4764 76.2856 44.4621C76.3326 44.4461 76.3827 44.4254 76.4297 44.3903C76.497 44.344 76.5471 44.261 76.5675 44.1924C76.5879 44.1142 76.5926 44.0456 76.5926 43.9675V33.5937C76.5926 32.6667 76.5471 31.7079 76.4923 30.7251C76.6255 31.0138 76.3623 30.4554 76.4923 30.7251C76.8839 31.5372 77.2676 32.3062 77.7045 33.0736V33.0704L81.7123 40.2819" fill="#575B5C"/>
<path fill-rule="evenodd" clip-rule="evenodd" d="M102.98 43.3705C102.948 43.2716 102.872 43.1774 102.779 43.1328C102.689 43.0897 102.598 43.0849 102.508 43.0849H94.143V36.847H101.249C101.31 36.847 101.369 36.8422 101.428 36.8199C101.48 36.8087 101.528 36.7848 101.568 36.756C101.632 36.7018 101.677 36.6252 101.699 36.5534C101.721 36.4784 101.724 36.4113 101.724 36.3316V35.931C101.724 35.864 101.719 35.805 101.704 35.7443C101.691 35.6964 101.671 35.6502 101.64 35.6055C101.593 35.5369 101.518 35.4858 101.453 35.4698C101.382 35.4427 101.318 35.4379 101.249 35.4379H94.143V29.4027H102.198C102.267 29.4027 102.326 29.3979 102.387 29.3867C102.433 29.3708 102.48 29.3548 102.524 29.3197C102.594 29.2766 102.643 29.2048 102.665 29.1298C102.689 29.058 102.693 28.9878 102.693 28.916V28.5154C102.693 28.4436 102.689 28.3814 102.675 28.3144C102.661 28.2649 102.642 28.2138 102.608 28.1707C102.559 28.1037 102.482 28.0479 102.412 28.0319C102.34 28.0048 102.27 28 102.197 28H93.2016C93.1378 28 93.0756 28.0048 93.0133 28.0239C92.9651 28.0319 92.9137 28.059 92.8702 28.0862C92.8001 28.1388 92.755 28.2218 92.7332 28.292C92.7099 28.3638 92.7068 28.4372 92.7068 28.5138V43.9706C92.7068 44.0424 92.7115 44.1062 92.7286 44.1732C92.7379 44.2163 92.7597 44.2674 92.7924 44.3121C92.8421 44.3871 92.92 44.4349 92.99 44.4541C93.06 44.478 93.1316 44.4812 93.2047 44.4812H102.508C102.569 44.4812 102.628 44.4812 102.69 44.4668C102.78 44.4381 102.883 44.3759 102.938 44.2769C102.992 44.1812 103.008 44.0791 103.008 43.9721V43.5716C103.008 43.5046 102.998 43.4376 102.981 43.3689" fill="#575B5C"/>
<path fill-rule="evenodd" clip-rule="evenodd" d="M121.533 28.316C121.529 28.2681 121.513 28.2218 121.491 28.1739C121.461 28.1021 121.407 28.0511 121.357 28.0319C121.307 28.0048 121.258 28 121.208 28H120.879C120.83 28 120.788 28.0048 120.741 28.0239C120.705 28.0319 120.671 28.059 120.636 28.0862C120.59 28.1388 120.552 28.2218 120.54 28.292C120.524 28.3638 120.519 28.4388 120.519 28.5138V43.9706C120.519 44.0424 120.523 44.1062 120.534 44.1732C120.542 44.2163 120.558 44.2674 120.581 44.3121C120.617 44.3871 120.669 44.4349 120.725 44.4541C120.773 44.478 120.823 44.4812 120.878 44.4812H121.207C121.251 44.4812 121.297 44.4812 121.339 44.4573C121.374 44.4461 121.406 44.4222 121.44 44.3902C121.482 44.3344 121.515 44.2642 121.53 44.1908C121.543 44.1158 121.549 44.0487 121.549 43.969V28.5122C121.549 28.4404 121.543 28.3782 121.532 28.3144" fill="#575B5C"/>
<path d="M136.681 40.5687L136.26 40.4071C136.189 40.3826 136.118 40.3663 136.043 40.3663C135.944 40.3663 135.835 40.4071 135.764 40.4756C135.695 40.5475 135.655 40.6258 135.616 40.714L135.608 40.7303V40.7417C135.278 41.8566 134.812 42.6792 134.086 43.2261C133.357 43.7778 132.338 44.07 130.867 44.07C129.284 44.07 128.095 43.6325 127.304 42.8702C126.51 42.103 126.095 41.0012 126.095 39.5975V33.8893C126.095 32.4709 126.497 31.3789 127.279 30.6231C128.062 29.8641 129.247 29.4429 130.869 29.4429C132.3 29.4429 133.308 29.7058 134.034 30.2297C134.762 30.7488 135.232 31.5388 135.562 32.6586V32.6618C135.593 32.7549 135.631 32.8447 135.712 32.9214C135.756 32.954 135.8 32.9834 135.854 32.9981C135.9 33.0193 135.947 33.0193 135.994 33.0193C136.056 33.0193 136.119 33.0063 136.19 32.9948L136.201 32.9899L136.629 32.8447L136.634 32.8398C136.719 32.799 136.793 32.763 136.867 32.6945C136.904 32.6586 136.938 32.6129 136.957 32.5557C136.981 32.5019 136.989 32.4464 136.989 32.3941C136.989 32.3174 136.975 32.2554 136.953 32.1787L136.957 32.1836C136.563 30.8337 135.938 29.7743 134.946 29.0659C133.955 28.3558 132.629 28 130.869 28C128.853 28 127.29 28.555 126.229 29.5882C125.173 30.6182 124.639 32.1134 124.639 33.9105V39.5779C124.639 41.3848 125.189 42.8865 126.253 43.9231C127.32 44.953 128.884 45.5113 130.869 45.5113C132.676 45.5113 134.016 45.1228 135.003 44.385C135.993 43.6439 136.613 42.5568 137 41.2151H136.997V41.22" fill="#575B5C"/>
<path fill-rule="evenodd" clip-rule="evenodd" d="M11.0743 29.03H10.6008C10.4081 29.03 10.3444 29.0926 10.3444 29.3253L10.3444 39.7077C10.3444 42.6448 8.81759 44.5306 5.67756 44.5306C2.53753 44.5306 0.989515 42.6448 0.989515 39.7077L0.989515 29.3253C0.989515 29.0926 0.925771 29.03 0.731511 29.03H0.280772C0.0637471 29.03 0 29.0926 0 29.3253L0 39.7077C0 43.2386 1.87127 45.5112 5.67604 45.5112C9.4808 45.5112 11.3308 43.2386 11.3308 39.7077L11.3308 29.3253C11.3308 29.0926 11.2656 29.03 11.0713 29.03" fill="#575B5C"/>
<path fill-rule="evenodd" clip-rule="evenodd" d="M31.6638 29.03H31.193C30.9687 29.03 30.9023 29.09 30.9023 29.3128V44.1984C30.9023 44.4197 30.9719 44.4812 31.193 44.4812H31.6638C31.8629 44.4812 31.9324 44.4197 31.9324 44.1984V29.3128C31.9324 29.09 31.8629 29.03 31.6638 29.03Z" fill="#575B5C"/>
<path fill-rule="evenodd" clip-rule="evenodd" d="M41.2264 28C37.1813 28 35.0225 30.098 35.0225 33.52V38.9659C35.0225 42.3848 37.1813 44.4812 41.2264 44.4812C45.2716 44.4812 47.3834 42.3832 47.3834 38.9659V33.52C47.3834 30.098 45.2245 28 41.2264 28ZM46.3275 38.9644C46.3275 41.8221 44.5336 43.5165 41.2248 43.5165C37.916 43.5165 36.0783 41.8221 36.0783 38.9644V33.5184C36.0783 30.6575 37.869 28.9584 41.2248 28.9584C44.5806 28.9584 46.3275 30.6575 46.3275 33.5184V38.9644Z" fill="#575B5C"/>
<path fill-rule="evenodd" clip-rule="evenodd" d="M62.5498 29.0316H62.0785C61.8437 29.0316 61.7721 29.0915 61.7721 29.2866V39.1074C61.7721 40.6118 61.9403 42.0686 61.9403 43.0229H61.8904C61.3242 42.2822 60.5932 41.0652 59.7222 39.9127L51.5827 29.1806C51.536 29.1161 51.4395 29.0316 51.2546 29.0316H50.7817C50.5436 29.0316 50.4736 29.0915 50.4736 29.3143V44.1984C50.4736 44.4197 50.5436 44.4812 50.7817 44.4812H51.2546C51.4661 44.4812 51.536 44.4197 51.536 44.1984V34.058C51.536 32.6873 51.3928 31.2951 51.3928 30.4668H51.4395C51.9357 31.0922 52.5701 32.2678 53.3495 33.2943L61.7255 44.3121C61.8171 44.4642 61.8904 44.4796 62.0585 44.4796H62.5514C62.7663 44.4796 62.8345 44.4181 62.8345 44.1969V29.3128C62.8345 29.09 62.7663 29.03 62.5514 29.03" fill="#575B5C"/>
<path fill-rule="evenodd" clip-rule="evenodd" d="M72.8449 38.3007H66.2391C65.9983 38.3007 65.9248 38.3752 65.9248 38.595V39.0223C65.9248 39.2528 65.9965 39.3308 66.2391 39.3308H72.8449C73.0636 39.3308 73.1353 39.2528 73.1353 39.0223V38.595C73.1353 38.3752 73.0619 38.3007 72.8449 38.3007Z" fill="#575B5C"/>
<path fill-rule="evenodd" clip-rule="evenodd" d="M26.521 29.0316H26.0921C25.8724 29.0316 25.8098 29.0915 25.8098 29.2866V39.1074C25.8098 40.6118 25.9578 42.0686 25.9578 43.0229H25.9166C25.3977 42.2822 24.7262 41.0652 23.9295 39.9127L16.4692 29.1806C16.4234 29.1161 16.3394 29.0316 16.1655 29.0316H15.732C15.5153 29.0316 15.4512 29.0915 15.4512 29.3143L15.4512 44.1984C15.4512 44.4197 15.5153 44.4812 15.732 44.4812H16.1655C16.3593 44.4812 16.4234 44.4197 16.4234 44.1984V34.058C16.4234 32.6873 16.2967 31.2951 16.2967 30.4668H16.3394C16.7927 31.0922 17.3742 32.2678 18.0885 33.2943L25.7625 44.3121C25.8495 44.4642 25.9151 44.4796 26.0677 44.4796H26.521C26.7179 44.4796 26.782 44.4181 26.782 44.1969V29.3128C26.782 29.09 26.7179 29.03 26.521 29.03" fill="#575B5C"/>
<path fill-rule="evenodd" clip-rule="evenodd" d="M115.744 29.6642C114.635 28.5856 113.017 28 110.98 28H106.583C106.52 28 106.461 28.0032 106.399 28.0239C106.353 28.0319 106.304 28.0606 106.259 28.0878C106.19 28.1388 106.146 28.2218 106.127 28.2936C106.104 28.3654 106.098 28.4404 106.098 28.5154V43.9706C106.098 44.0424 106.104 44.1046 106.119 44.1732C106.131 44.2163 106.149 44.2674 106.184 44.3121C106.231 44.3871 106.306 44.4349 106.376 44.4541C106.446 44.478 106.516 44.4812 106.584 44.4812H110.982C113.019 44.4812 114.636 43.9036 115.746 42.8202C116.854 41.7415 117.432 40.189 117.428 38.2982V34.1846C117.432 32.2954 116.852 30.7365 115.746 29.6626M116.025 38.2998C116.025 39.8252 115.577 41.0059 114.738 41.8149C113.897 42.6287 112.648 43.0834 111 43.0834H107.501V29.4026H111C112.654 29.4026 113.908 29.8637 114.746 30.6663C115.58 31.4753 116.025 32.656 116.025 34.1846V38.2982V38.2998Z" fill="#575B5C"/>
<defs>
<linearGradient id="paint0_linear_806_174" x1="35.2205" y1="61.0981" x2="101.601" y2="61.0981" gradientUnits="userSpaceOnUse">
<stop stop-color="#F3F5F8"/>
<stop offset="0.5" stop-color="#59ACD9"/>
<stop offset="1" stop-color="#F3F5F8"/>
</linearGradient>
<linearGradient id="paint1_linear_806_174" x1="35.2205" y1="11.9018" x2="101.601" y2="11.9018" gradientUnits="userSpaceOnUse">
<stop stop-color="#F3F5F8"/>
<stop offset="0.5" stop-color="#85CAD3"/>
<stop offset="1" stop-color="#F3F5F8"/>
</linearGradient>
</defs>
</svg>
